<svg width="68" height="28" viewBox="0 0 68 28" fill="none" xmlns="http://www.w3.org/2000/svg">
<rect x="0.25" y="0.25" width="67.5" height="27.5" rx="0.75" fill="#F1F5F9"/>
<rect x="0.25" y="0.25" width="67.5" height="27.5" rx="0.75" stroke="#E2E8F0" stroke-width="0.5"/>
<path d="M19.44 21.5H16.22L13.44 16.22H11.44V21.5H8.66V10.32C8.66 9.25333 8.90667 8.48 9.4 8C9.89333 7.50667 10.72 7.26 11.88 7.26H14.24C15.6533 7.26 16.7733 7.69333 17.6 8.56C18.44 9.41333 18.86 10.5 18.86 11.82C18.86 12.78 18.6067 13.6133 18.1 14.32C17.6067 15.0133 16.9933 15.4933 16.26 15.76L19.44 21.5ZM14.06 13.9C14.6467 13.9 15.1267 13.7 15.5 13.3C15.8867 12.8867 16.08 12.38 16.08 11.78C16.08 11.1667 15.8933 10.6733 15.52 10.3C15.16 9.92667 14.6733 9.74 14.06 9.74H12.68C11.8533 9.74 11.44 10.16 11.44 11V13.9H14.06ZM30.1059 16.4H23.4459C23.4459 17.44 23.6059 18.2 23.9259 18.68C24.2593 19.16 24.9193 19.4 25.9059 19.4C26.5459 19.4 27.0193 19.2 27.3259 18.8C27.6326 18.3867 27.7859 17.9933 27.7859 17.62H30.1259C30.1259 19.0467 29.7393 20.0933 28.9659 20.76C28.2059 21.4267 27.1926 21.76 25.9259 21.76C24.6726 21.76 23.6993 21.58 23.0059 21.22C21.5793 20.4867 20.8659 18.54 20.8659 15.38C20.8659 13.5 21.2726 12.1267 22.0859 11.26C22.8993 10.38 24.1393 9.94 25.8059 9.94C28.6993 9.94 30.1459 11.5467 30.1459 14.76C30.1459 15.1067 30.1326 15.6533 30.1059 16.4ZM23.5059 14.62H27.7859C27.7859 13.74 27.6193 13.1 27.2859 12.7C26.9526 12.3 26.4393 12.1 25.7459 12.1C25.0659 12.1 24.5193 12.3067 24.1059 12.72C23.7059 13.12 23.5059 13.7533 23.5059 14.62ZM41.363 21.5H38.763V14.2C38.763 13.5467 38.6296 13.1 38.363 12.86C38.0963 12.62 37.723 12.5 37.243 12.5L34.903 13.48V21.5H32.303V10.08H34.243L34.843 11.44L38.043 9.96C38.9363 9.96 39.7096 10.2933 40.363 10.96C41.0296 11.6133 41.363 12.5733 41.363 13.84V21.5ZM45.2878 5.72C45.9145 5.72 46.3211 5.82 46.5078 6.02C46.6945 6.20667 46.7878 6.61333 46.7878 7.24C46.7878 7.85333 46.6878 8.26 46.4878 8.46C46.3011 8.64667 45.8945 8.74 45.2678 8.74C44.6545 8.74 44.2478 8.64 44.0478 8.44C43.8611 8.24 43.7678 7.83333 43.7678 7.22C43.7678 6.60667 43.8611 6.20667 44.0478 6.02C44.2478 5.82 44.6611 5.72 45.2878 5.72ZM46.5678 21.5H43.9678V10.5H46.5678V21.5ZM55.6556 16.34V15.3C55.6556 14.3133 55.509 13.56 55.2156 13.04C54.9356 12.52 54.3423 12.26 53.4356 12.26C51.969 12.26 51.2356 13.2467 51.2356 15.22V16.26C51.2356 18.38 51.969 19.44 53.4356 19.44C54.3823 19.44 55.0023 19.0867 55.2956 18.38C55.5356 17.82 55.6556 17.14 55.6556 16.34ZM58.2556 15.74C58.2556 18.2067 57.789 19.86 56.8556 20.7C56.069 21.42 54.929 21.78 53.4356 21.78C51.529 21.78 50.2423 21.22 49.5756 20.1C48.949 19.0733 48.6356 17.62 48.6356 15.74C48.6356 13.98 48.949 12.6 49.5756 11.6C50.269 10.48 51.529 9.92 53.3556 9.92C55.1956 9.92 56.469 10.4133 57.1756 11.4C57.8956 12.3733 58.2556 13.82 58.2556 15.74Z" fill="#131E33"/>
</svg>
