<svg width="58" height="28" viewBox="0 0 58 28" fill="none" xmlns="http://www.w3.org/2000/svg">
<rect x="0.25" y="0.25" width="57.5" height="27.5" rx="0.75" fill="#F1F5F9"/>
<rect x="0.25" y="0.25" width="57.5" height="27.5" rx="0.75" stroke="#E2E8F0" stroke-width="0.5"/>
<path d="M3.54 20.5C3.40667 20.5 3.29333 20.4533 3.2 20.36C3.10667 20.2667 3.06 20.1533 3.06 20.02V7C3.06 6.85333 3.10667 6.73333 3.2 6.64C3.29333 6.54667 3.40667 6.5 3.54 6.5H8.72C10.3333 6.5 11.6067 6.87333 12.54 7.62C13.4733 8.36667 13.94 9.45333 13.94 10.88C13.94 11.8667 13.6933 12.6867 13.2 13.34C12.72 13.9933 12.0733 14.4667 11.26 14.76L14.18 19.86C14.22 19.94 14.24 20.0133 14.24 20.08C14.24 20.2 14.1933 20.3 14.1 20.38C14.02 20.46 13.9267 20.5 13.82 20.5H12C11.7733 20.5 11.6 20.44 11.48 20.32C11.36 20.2 11.2667 20.08 11.2 19.96L8.62 15.22H5.84V20.02C5.84 20.1533 5.79333 20.2667 5.7 20.36C5.62 20.4533 5.50667 20.5 5.36 20.5H3.54ZM5.84 12.96H8.66C9.47333 12.96 10.08 12.78 10.48 12.42C10.88 12.0467 11.08 11.5267 11.08 10.86C11.08 10.1933 10.88 9.67333 10.48 9.3C10.0933 8.91333 9.48667 8.72 8.66 8.72H5.84V12.96ZM20.6398 20.7C19.1598 20.7 17.9865 20.2733 17.1198 19.42C16.2532 18.5667 15.7865 17.3533 15.7198 15.78C15.7065 15.6467 15.6998 15.48 15.6998 15.28C15.6998 15.0667 15.7065 14.9 15.7198 14.78C15.7732 13.78 15.9998 12.9133 16.3998 12.18C16.8132 11.4467 17.3798 10.8867 18.0998 10.5C18.8198 10.1 19.6665 9.9 20.6398 9.9C21.7198 9.9 22.6265 10.1267 23.3598 10.58C24.0932 11.02 24.6465 11.64 25.0198 12.44C25.3932 13.2267 25.5798 14.14 25.5798 15.18V15.6C25.5798 15.7333 25.5332 15.8467 25.4398 15.94C25.3465 16.0333 25.2265 16.08 25.0798 16.08H18.4398C18.4398 16.08 18.4398 16.1 18.4398 16.14C18.4398 16.18 18.4398 16.2133 18.4398 16.24C18.4532 16.7067 18.5398 17.14 18.6998 17.54C18.8732 17.9267 19.1198 18.24 19.4398 18.48C19.7732 18.72 20.1665 18.84 20.6198 18.84C20.9932 18.84 21.3065 18.7867 21.5598 18.68C21.8132 18.56 22.0198 18.4267 22.1798 18.28C22.3398 18.1333 22.4532 18.0133 22.5198 17.92C22.6398 17.76 22.7332 17.6667 22.7998 17.64C22.8798 17.6 22.9932 17.58 23.1398 17.58H24.8598C24.9932 17.58 25.0998 17.62 25.1798 17.7C25.2732 17.78 25.3132 17.88 25.2998 18C25.2865 18.2133 25.1732 18.4733 24.9598 18.78C24.7598 19.0867 24.4665 19.3867 24.0798 19.68C23.6932 19.9733 23.2065 20.22 22.6198 20.42C22.0465 20.6067 21.3865 20.7 20.6398 20.7ZM18.4398 14.4H22.8598V14.34C22.8598 13.82 22.7732 13.3667 22.5998 12.98C22.4265 12.5933 22.1732 12.2867 21.8398 12.06C21.5065 11.8333 21.1065 11.72 20.6398 11.72C20.1732 11.72 19.7732 11.8333 19.4398 12.06C19.1065 12.2867 18.8532 12.5933 18.6798 12.98C18.5198 13.3667 18.4398 13.82 18.4398 14.34V14.4ZM28.1828 20.5C28.0495 20.5 27.9361 20.4533 27.8428 20.36C27.7495 20.2667 27.7028 20.1533 27.7028 20.02V10.58C27.7028 10.4467 27.7495 10.3333 27.8428 10.24C27.9361 10.1467 28.0495 10.1 28.1828 10.1H29.8228C29.9561 10.1 30.0695 10.1467 30.1628 10.24C30.2561 10.3333 30.3028 10.4467 30.3028 10.58V11.4C30.6495 10.9733 31.0895 10.62 31.6228 10.34C32.1695 10.0467 32.8428 9.9 33.6428 9.9C34.4561 9.9 35.1628 10.0867 35.7628 10.46C36.3628 10.82 36.8228 11.3333 37.1428 12C37.4761 12.6667 37.6428 13.4667 37.6428 14.4V20.02C37.6428 20.1533 37.5961 20.2667 37.5028 20.36C37.4095 20.4533 37.2961 20.5 37.1628 20.5H35.4028C35.2695 20.5 35.1561 20.4533 35.0628 20.36C34.9695 20.2667 34.9228 20.1533 34.9228 20.02V14.52C34.9228 13.7467 34.7295 13.14 34.3428 12.7C33.9695 12.26 33.4228 12.04 32.7028 12.04C32.0095 12.04 31.4561 12.26 31.0428 12.7C30.6295 13.14 30.4228 13.7467 30.4228 14.52V20.02C30.4228 20.1533 30.3761 20.2667 30.2828 20.36C30.1895 20.4533 30.0761 20.5 29.9428 20.5H28.1828ZM40.6633 20.5C40.5299 20.5 40.4166 20.4533 40.3233 20.36C40.2299 20.2667 40.1833 20.1533 40.1833 20.02V10.58C40.1833 10.4467 40.2299 10.3333 40.3233 10.24C40.4166 10.1467 40.5299 10.1 40.6633 10.1H42.3233C42.4699 10.1 42.5833 10.1467 42.6633 10.24C42.7566 10.3333 42.8033 10.4467 42.8033 10.58V20.02C42.8033 20.1533 42.7566 20.2667 42.6633 20.36C42.5833 20.4533 42.4699 20.5 42.3233 20.5H40.6633ZM40.5833 8.38C40.4366 8.38 40.3166 8.34 40.2233 8.26C40.1433 8.16667 40.1033 8.04667 40.1033 7.9V6.46C40.1033 6.32667 40.1433 6.21333 40.2233 6.12C40.3166 6.02667 40.4366 5.98 40.5833 5.98H42.4033C42.5499 5.98 42.6699 6.02667 42.7633 6.12C42.8566 6.21333 42.9033 6.32667 42.9033 6.46V7.9C42.9033 8.04667 42.8566 8.16667 42.7633 8.26C42.6699 8.34 42.5499 8.38 42.4033 8.38H40.5833ZM50.1153 20.7C49.0486 20.7 48.1486 20.5133 47.4153 20.14C46.6953 19.7667 46.142 19.24 45.7553 18.56C45.382 17.88 45.1686 17.0867 45.1153 16.18C45.102 15.94 45.0953 15.6467 45.0953 15.3C45.0953 14.9533 45.102 14.66 45.1153 14.42C45.1686 13.5 45.3886 12.7067 45.7753 12.04C46.1753 11.36 46.7353 10.8333 47.4553 10.46C48.1886 10.0867 49.0753 9.9 50.1153 9.9C51.1553 9.9 52.0353 10.0867 52.7553 10.46C53.4886 10.8333 54.0486 11.36 54.4353 12.04C54.8353 12.7067 55.062 13.5 55.1153 14.42C55.1286 14.66 55.1353 14.9533 55.1353 15.3C55.1353 15.6467 55.1286 15.94 55.1153 16.18C55.062 17.0867 54.842 17.88 54.4553 18.56C54.082 19.24 53.5286 19.7667 52.7953 20.14C52.0753 20.5133 51.182 20.7 50.1153 20.7ZM50.1153 18.72C50.822 18.72 51.3686 18.5 51.7553 18.06C52.142 17.6067 52.3553 16.9467 52.3953 16.08C52.4086 15.88 52.4153 15.62 52.4153 15.3C52.4153 14.98 52.4086 14.72 52.3953 14.52C52.3553 13.6667 52.142 13.0133 51.7553 12.56C51.3686 12.1067 50.822 11.88 50.1153 11.88C49.4086 11.88 48.862 12.1067 48.4753 12.56C48.0886 13.0133 47.8753 13.6667 47.8353 14.52C47.822 14.72 47.8153 14.98 47.8153 15.3C47.8153 15.62 47.822 15.88 47.8353 16.08C47.8753 16.9467 48.0886 17.6067 48.4753 18.06C48.862 18.5 49.4086 18.72 50.1153 18.72Z" fill="#131E33"/>
</svg>
