<svg width="28" height="28" viewBox="0 0 28 28" fill="none" xmlns="http://www.w3.org/2000/svg">
<rect x="0.25" y="0.25" width="27.5" height="27.5" rx="0.75" fill="#F1F5F9"/>
<rect x="0.25" y="0.25" width="27.5" height="27.5" rx="0.75" stroke="#E2E8F0" stroke-width="0.5"/>
<path d="M3.54 20.5C3.40667 20.5 3.29333 20.4533 3.2 20.36C3.10667 20.2667 3.06 20.1533 3.06 20.02V7C3.06 6.85333 3.10667 6.73333 3.2 6.64C3.29333 6.54667 3.40667 6.5 3.54 6.5H8.72C10.3333 6.5 11.6067 6.87333 12.54 7.62C13.4733 8.36667 13.94 9.45333 13.94 10.88C13.94 11.8667 13.6933 12.6867 13.2 13.34C12.72 13.9933 12.0733 14.4667 11.26 14.76L14.18 19.86C14.22 19.94 14.24 20.0133 14.24 20.08C14.24 20.2 14.1933 20.3 14.1 20.38C14.02 20.46 13.9267 20.5 13.82 20.5H12C11.7733 20.5 11.6 20.44 11.48 20.32C11.36 20.2 11.2667 20.08 11.2 19.96L8.62 15.22H5.84V20.02C5.84 20.1533 5.79333 20.2667 5.7 20.36C5.62 20.4533 5.50667 20.5 5.36 20.5H3.54ZM5.84 12.96H8.66C9.47333 12.96 10.08 12.78 10.48 12.42C10.88 12.0467 11.08 11.5267 11.08 10.86C11.08 10.1933 10.88 9.67333 10.48 9.3C10.0933 8.91333 9.48667 8.72 8.66 8.72H5.84V12.96ZM20.6398 20.7C19.1598 20.7 17.9865 20.2733 17.1198 19.42C16.2532 18.5667 15.7865 17.3533 15.7198 15.78C15.7065 15.6467 15.6998 15.48 15.6998 15.28C15.6998 15.0667 15.7065 14.9 15.7198 14.78C15.7732 13.78 15.9998 12.9133 16.3998 12.18C16.8132 11.4467 17.3798 10.8867 18.0998 10.5C18.8198 10.1 19.6665 9.9 20.6398 9.9C21.7198 9.9 22.6265 10.1267 23.3598 10.58C24.0932 11.02 24.6465 11.64 25.0198 12.44C25.3932 13.2267 25.5798 14.14 25.5798 15.18V15.6C25.5798 15.7333 25.5332 15.8467 25.4398 15.94C25.3465 16.0333 25.2265 16.08 25.0798 16.08H18.4398C18.4398 16.08 18.4398 16.1 18.4398 16.14C18.4398 16.18 18.4398 16.2133 18.4398 16.24C18.4532 16.7067 18.5398 17.14 18.6998 17.54C18.8732 17.9267 19.1198 18.24 19.4398 18.48C19.7732 18.72 20.1665 18.84 20.6198 18.84C20.9932 18.84 21.3065 18.7867 21.5598 18.68C21.8132 18.56 22.0198 18.4267 22.1798 18.28C22.3398 18.1333 22.4532 18.0133 22.5198 17.92C22.6398 17.76 22.7332 17.6667 22.7998 17.64C22.8798 17.6 22.9932 17.58 23.1398 17.58H24.8598C24.9932 17.58 25.0998 17.62 25.1798 17.7C25.2732 17.78 25.3132 17.88 25.2998 18C25.2865 18.2133 25.1732 18.4733 24.9598 18.78C24.7598 19.0867 24.4665 19.3867 24.0798 19.68C23.6932 19.9733 23.2065 20.22 22.6198 20.42C22.0465 20.6067 21.3865 20.7 20.6398 20.7ZM18.4398 14.4H22.8598V14.34C22.8598 13.82 22.7732 13.3667 22.5998 12.98C22.4265 12.5933 22.1732 12.2867 21.8398 12.06C21.5065 11.8333 21.1065 11.72 20.6398 11.72C20.1732 11.72 19.7732 11.8333 19.4398 12.06C19.1065 12.2867 18.8532 12.5933 18.6798 12.98C18.5198 13.3667 18.4398 13.82 18.4398 14.34V14.4Z" fill="#131E33"/>
</svg>
