<svg width="28" height="28" viewBox="0 0 28 28" fill="none" xmlns="http://www.w3.org/2000/svg">
<rect x="0.25" y="0.25" width="27.5" height="27.5" rx="0.75" fill="#F1F5F9"/>
<rect x="0.25" y="0.25" width="27.5" height="27.5" rx="0.75" stroke="#E2E8F0" stroke-width="0.5"/>
<path d="M13.94 21.5H10.72L7.94 16.22H5.94V21.5H3.16V10.32C3.16 9.25333 3.40667 8.48 3.9 8C4.39333 7.50667 5.22 7.26 6.38 7.26H8.74C10.1533 7.26 11.2733 7.69333 12.1 8.56C12.94 9.41333 13.36 10.5 13.36 11.82C13.36 12.78 13.1067 13.6133 12.6 14.32C12.1067 15.0133 11.4933 15.4933 10.76 15.76L13.94 21.5ZM8.56 13.9C9.14667 13.9 9.62667 13.7 10 13.3C10.3867 12.8867 10.58 12.38 10.58 11.78C10.58 11.1667 10.3933 10.6733 10.02 10.3C9.66 9.92667 9.17333 9.74 8.56 9.74H7.18C6.35333 9.74 5.94 10.16 5.94 11V13.9H8.56ZM24.6059 16.4H17.9459C17.9459 17.44 18.1059 18.2 18.4259 18.68C18.7593 19.16 19.4193 19.4 20.4059 19.4C21.0459 19.4 21.5193 19.2 21.8259 18.8C22.1326 18.3867 22.2859 17.9933 22.2859 17.62H24.6259C24.6259 19.0467 24.2393 20.0933 23.4659 20.76C22.7059 21.4267 21.6926 21.76 20.4259 21.76C19.1726 21.76 18.1993 21.58 17.5059 21.22C16.0793 20.4867 15.3659 18.54 15.3659 15.38C15.3659 13.5 15.7726 12.1267 16.5859 11.26C17.3993 10.38 18.6393 9.94 20.3059 9.94C23.1993 9.94 24.6459 11.5467 24.6459 14.76C24.6459 15.1067 24.6326 15.6533 24.6059 16.4ZM18.0059 14.62H22.2859C22.2859 13.74 22.1193 13.1 21.7859 12.7C21.4526 12.3 20.9393 12.1 20.2459 12.1C19.5659 12.1 19.0193 12.3067 18.6059 12.72C18.2059 13.12 18.0059 13.7533 18.0059 14.62Z" fill="#131E33"/>
</svg>
